<svg width="500" height="400" viewBox="0 0 500 400" fill="none" xmlns="http://www.w3.org/2000/svg">
  <!-- Background -->
  <rect width="500" height="400" rx="20" fill="#F0F7FF"/>
  
  <!-- Dashboard Elements -->
  <rect x="50" y="50" width="400" height="300" rx="10" fill="white" stroke="#E2E8F0" stroke-width="2"/>
  
  <!-- Header -->
  <rect x="50" y="50" width="400" height="40" rx="10" fill="#0070F3"/>
  <circle cx="80" cy="70" r="10" fill="white"/>
  <rect x="100" y="65" width="100" height="10" rx="5" fill="white"/>
  <rect x="350" y="65" width="70" height="10" rx="5" fill="white"/>
  
  <!-- Charts and Graphs -->
  <rect x="70" y="110" width="150" height="100" rx="5" fill="#F3F9FF" stroke="#E2E8F0" stroke-width="1"/>
  <path d="M80 160 L100 140 L120 180 L140 130 L160 150 L180 120 L200 140" stroke="#0070F3" stroke-width="2" fill="none"/>
  
  <rect x="230" y="110" width="200" height="100" rx="5" fill="#F3F9FF" stroke="#E2E8F0" stroke-width="1"/>
  <circle cx="280" cy="160" r="40" fill="#E2F1FF"/>
  <path d="M280 160 L280 120 A40 40 0 0 1 316 180 Z" fill="#0070F3"/>
  <circle cx="280" cy="160" r="15" fill="white"/>
  
  <!-- Data Table -->
  <rect x="70" y="230" width="360" height="100" rx="5" fill="#F3F9FF" stroke="#E2E8F0" stroke-width="1"/>
  <line x1="70" y1="250" x2="430" y2="250" stroke="#E2E8F0" stroke-width="1"/>
  <line x1="70" y1="270" x2="430" y2="270" stroke="#E2E8F0" stroke-width="1"/>
  <line x1="70" y1="290" x2="430" y2="290" stroke="#E2E8F0" stroke-width="1"/>
  <line x1="70" y1="310" x2="430" y2="310" stroke="#E2E8F0" stroke-width="1"/>
  
  <line x1="170" y1="230" x2="170" y2="330" stroke="#E2E8F0" stroke-width="1"/>
  <line x1="270" y1="230" x2="270" y2="330" stroke="#E2E8F0" stroke-width="1"/>
  <line x1="370" y1="230" x2="370" y2="330" stroke="#E2E8F0" stroke-width="1"/>
  
  <!-- Header Text -->
  <rect x="80" y="235" width="80" height="10" rx="2" fill="#0070F3"/>
  <rect x="180" y="235" width="80" height="10" rx="2" fill="#0070F3"/>
  <rect x="280" y="235" width="80" height="10" rx="2" fill="#0070F3"/>
  <rect x="380" y="235" width="40" height="10" rx="2" fill="#0070F3"/>
  
  <!-- Data Rows -->
  <rect x="80" y="255" width="70" height="8" rx="2" fill="#A3C4FF"/>
  <rect x="180" y="255" width="70" height="8" rx="2" fill="#A3C4FF"/>
  <rect x="280" y="255" width="70" height="8" rx="2" fill="#A3C4FF"/>
  <rect x="380" y="255" width="30" height="8" rx="2" fill="#A3C4FF"/>
  
  <rect x="80" y="275" width="70" height="8" rx="2" fill="#C7DCFF"/>
  <rect x="180" y="275" width="70" height="8" rx="2" fill="#C7DCFF"/>
  <rect x="280" y="275" width="70" height="8" rx="2" fill="#C7DCFF"/>
  <rect x="380" y="275" width="30" height="8" rx="2" fill="#C7DCFF"/>
  
  <rect x="80" y="295" width="70" height="8" rx="2" fill="#A3C4FF"/>
  <rect x="180" y="295" width="70" height="8" rx="2" fill="#A3C4FF"/>
  <rect x="280" y="295" width="70" height="8" rx="2" fill="#A3C4FF"/>
  <rect x="380" y="295" width="30" height="8" rx="2" fill="#A3C4FF"/>
  
  <rect x="80" y="315" width="70" height="8" rx="2" fill="#C7DCFF"/>
  <rect x="180" y="315" width="70" height="8" rx="2" fill="#C7DCFF"/>
  <rect x="280" y="315" width="70" height="8" rx="2" fill="#C7DCFF"/>
  <rect x="380" y="315" width="30" height="8" rx="2" fill="#C7DCFF"/>
</svg> 