<svg xmlns="http://www.w3.org/2000/svg" viewBox="0 0 32 32">
  <circle cx="16" cy="16" r="16" fill="#E84142"/>
  <path fill="#FFF" d="M20.72 19.43c.17.167.37.296.59.377.216.074.446.107.676.097.23-.012.455-.067.663-.16.208-.095.397-.23.553-.397l3.11-3.207c.17-.167.373-.297.595-.377.222-.08.458-.115.693-.104.235.012.464.071.674.172.21.1.398.243.553.418l.553.59-8.555 8.717h-5.333l-2.11-3.87 7.332-2.255zm-9.717.133l-2.11 3.87H3.56l6.666-12.217h4.11l2.222 4.06-5.555 4.287zm9.275-7.794l1.777-3.207h5.333L21.83 15.67l-3.11-3.207c-.167-.167-.366-.297-.585-.377-.22-.08-.453-.115-.686-.104-.233.012-.46.071-.668.172-.209.1-.397.243-.553.418l-1.777 1.87 1.777 3.313 3.552-6.52z"/>
</svg> 