<svg xmlns="http://www.w3.org/2000/svg" viewBox="0 0 32 32">
  <circle cx="16" cy="16" r="16" fill="#8247E5"/>
  <path fill="#FFF" d="M21.092 13.09c-.487-.277-1.117-.277-1.65 0l-2.766 1.602-1.883 1.047-2.766 1.602c-.487.277-1.117.277-1.65 0l-2.207-1.277c-.487-.277-.835-.832-.835-1.417v-2.462c0-.585.278-1.14.835-1.417l2.207-1.277c.487-.277 1.117-.277 1.65 0l2.207 1.277c.487.277.835.832.835 1.417v1.602l1.883-1.092v-1.602c0-.585-.278-1.14-.835-1.417l-4.09-2.37c-.487-.277-1.117-.277-1.65 0l-4.16 2.37c-.557.277-.835.832-.835 1.417v4.74c0 .585.278 1.14.835 1.417l4.09 2.37c.487.277 1.117.277 1.65 0l2.766-1.602 1.883-1.092 2.766-1.602c.487-.277 1.117-.277 1.65 0l2.207 1.277c.487.277.835.832.835 1.417v2.462c0 .585-.278 1.14-.835 1.417l-2.137 1.277c-.487.277-1.117.277-1.65 0l-2.207-1.277c-.487-.277-.835-.832-.835-1.417v-1.602l-1.883 1.092v1.602c0 .585.278 1.14.835 1.417l4.09 2.37c.487.277 1.117.277 1.65 0l4.09-2.37c.487-.277.835-.832.835-1.417v-4.74c0-.585-.278-1.14-.835-1.417l-4.09-2.37z"/>
</svg> 