<svg xmlns="http://www.w3.org/2000/svg" viewBox="0 0 32 32">
  <circle cx="16" cy="16" r="16" fill="#000000"/>
  <path d="M10.5 19.4L13 17.1C13.1 17 13.2 17 13.3 17H23.5C23.7 17 23.8 17.2 23.7 17.4L21.2 19.7C21.1 19.8 21 19.8 20.9 19.8H10.7C10.5 19.8 10.4 19.6 10.5 19.4Z" fill="#00FFA3"/>
  <path d="M10.5 12.8L13 10.5C13.1 10.4 13.2 10.4 13.3 10.4H23.5C23.7 10.4 23.8 10.6 23.7 10.8L21.2 13.1C21.1 13.2 21 13.2 20.9 13.2H10.7C10.5 13.2 10.4 13 10.5 12.8Z" fill="#00FFA3"/>
  <path d="M21.2 16.1L18.7 13.8C18.6 13.7 18.5 13.7 18.4 13.7H8.2C8 13.7 7.9 13.9 8 14.1L10.5 16.4C10.6 16.5 10.7 16.5 10.8 16.5H21C21.2 16.5 21.3 16.3 21.2 16.1Z" fill="#00FFA3"/>
</svg> 